<?xml version="1.0" ?><svg data-name="Artboard 16" id="Artboard_16" viewBox="0 0 200 200" xmlns="http://www.w3.org/2000/svg"><defs><style>
      .cls-1 {
        fill: #006ca1;
      }

      .cls-2 {
        fill: #003166;
      }

      .cls-3 {
        fill: #fff;
      }
    </style></defs><title/><path d="M100,1A99,99,0,1,1,1,100,99.1121,99.1121,0,0,1,100,1m0-1A100,100,0,1,0,200,100,100,100,0,0,0,100,0Z"/><g><path class="cls-1" d="M100,197.5A97.5,97.5,0,1,1,197.5,100,97.61,97.61,0,0,1,100,197.5Z"/><path d="M100,5A95,95,0,1,1,5,100,95.1076,95.1076,0,0,1,100,5m0-5A100,100,0,1,0,200,100,100,100,0,0,0,100,0Z"/></g><path class="cls-2" d="M100,5a95,95,0,1,0,95,95A95,95,0,0,0,100,5Zm0,185A90.0549,90.0549,0,0,1,13.22,76.0787C14.7221,108.52,52.9969,134.5,100,134.5s85.2779-25.98,86.78-58.4213A90.0549,90.0549,0,0,1,100,190Z"/><g><g><ellipse class="cls-3" cx="144.5" cy="76.5" rx="20.431" ry="20.8851"/><path class="cls-3" d="M144.5,37A39.5,39.5,0,1,0,184,76.5,39.5,39.5,0,0,0,144.5,37Zm0,66.7414A27.2414,27.2414,0,1,1,171.7414,76.5,27.2414,27.2414,0,0,1,144.5,103.7414Z"/></g><polygon class="cls-3" points="105 76 73 106 89 120 92 138 144 116 118 99 105 76"/><g><path class="cls-3" d="M46.0317,109.9851,5.02,94.4086C5.0118,94.9387,5,95.468,5,96a99.8533,99.8533,0,0,0,5.4312,32.5754l24.9075,9.46A30,30,0,0,1,46.0317,109.9851Z"/><path class="cls-3" d="M78.1595,138.2434h0a15.0538,15.0538,0,0,0-8.7024-19.361L54.35,113.1445a22.7589,22.7589,0,0,0-10.7076,28.0449l15.156,5.7563A15.0538,15.0538,0,0,0,78.1595,138.2434Z"/><path class="cls-3" d="M61.3367,110.8034a22.7566,22.7566,0,1,1-17.6942,30.386l-8.3038-3.1539.0045.0325a30.0295,30.0295,0,1,0,10.6885-28.0829l8.3184,3.1594A22.7148,22.7148,0,0,1,61.3367,110.8034Z"/><path class="cls-3" d="M35.3387,138.0355l8.3038,3.1539A22.7589,22.7589,0,0,1,54.35,113.1445l-8.3184-3.1594A30,30,0,0,0,35.3387,138.0355Z"/></g></g><g><g><path class="cls-3" d="M144.9678,97.3643A20.3685,20.3685,0,1,1,164.9189,77,20.1834,20.1834,0,0,1,144.9678,97.3643Z"/><path d="M144.9674,58A19.0046,19.0046,0,1,1,126.38,77a18.7968,18.7968,0,0,1,18.587-19m0-2.7292A21.7333,21.7333,0,1,0,166.2836,77a21.55,21.55,0,0,0-21.3162-21.7292Z"/></g><g><path class="cls-3" d="M64.94,164.791a31.3679,31.3679,0,0,1-30.9336-25.6572L9.8994,129.9775a1.4978,1.4978,0,0,1-.8857-.9141A101.2651,101.2651,0,0,1,3.5,96c0-.4346.0078-.8672.0156-1.3008l.0049-.3154a1.5,1.5,0,0,1,2.0322-1.3779L45.7676,108.28A31.4755,31.4755,0,0,1,73.95,103.0537l29.5752-27.7275A40.9958,40.9958,0,1,1,144.5,117.5c-.0635,0-.126-.001-.1895-.0029L96.1572,137.87A31.5524,31.5524,0,0,1,64.94,164.791ZM46.5723,143.9063a21.2544,21.2544,0,1,0,11.792-30.8418l11.625,4.416a16.5519,16.5519,0,0,1,9.5723,21.2949A16.6211,16.6211,0,0,1,64.09,149.4189a16.3458,16.3458,0,0,1-5.8242-1.0713ZM144.5,50.7588A25.7412,25.7412,0,1,0,170.2412,76.5,25.7709,25.7709,0,0,0,144.5,50.7588Z"/><path d="M144.5,37a39.5,39.5,0,0,1,0,79c-.1744,0-.3463-.0109-.52-.0131L144,116,94.7828,136.8227a30.0178,30.0178,0,0,1-59.44,1.2454l-.0045-.0325-24.9075-9.46A99.8533,99.8533,0,0,1,5,96c0-.532.0118-1.0613.02-1.5914l41.0115,15.5765a29.9734,29.9734,0,0,1,28.3051-5.2383L105,76l.0121.0214A39.494,39.494,0,0,1,144.5,37m0,66.7414A27.2414,27.2414,0,1,0,117.2586,76.5,27.2414,27.2414,0,0,0,144.5,103.7414M64.0895,147.9191a14.8782,14.8782,0,0,1-5.291-.9733l-15.156-5.7563A22.7592,22.7592,0,1,0,54.35,113.1445l15.1071,5.7378a15.0538,15.0538,0,0,1,8.7024,19.361h0a15.0657,15.0657,0,0,1-14.07,9.6757M144.5,34a42.495,42.495,0,0,0-42.4515,40.6548L73.5428,101.3789a32.8057,32.8057,0,0,0-8.5524-1.1337,33.05,33.05,0,0,0-19.4613,6.34L6.0853,91.6041a3,3,0,0,0-4.0648,2.7576l-.006.3625C2.0071,95.1489,2,95.5736,2,96a102.8,102.8,0,0,0,5.5947,33.5523A3,3,0,0,0,9.366,131.38l23.3345,8.8627A32.8561,32.8561,0,0,0,64.94,166.291a33.0537,33.0537,0,0,0,32.5658-27.3627L144.6088,119A42.5,42.5,0,0,0,144.5,34Zm0,66.7414A24.2414,24.2414,0,1,1,168.7414,76.5,24.2688,24.2688,0,0,1,144.5,100.7414Zm-80.6558,12.8q.581-.0342,1.16-.0343a19.7585,19.7585,0,0,1,3.1317,39.2623,19.9857,19.9857,0,0,1-3.1865.2576,19.7764,19.7764,0,0,1-13.999-5.853l6.7831,2.5762a17.839,17.839,0,0,0,6.3562,1.1688,18.1308,18.1308,0,0,0,16.8745-11.61,18.0538,18.0538,0,0,0-10.4417-23.2308l-6.6782-2.5364Z"/></g></g></svg>